<svg width="93" height="100" viewBox="0 0 93 100" fill="none" xmlns="http://www.w3.org/2000/svg">
<path id="Vector" d="M46.6731 0.000642357C20.9136 -0.136068 -0.17078 21.5667 0.00104279 48.0401C0.0647836 58.0171 3.11048 67.2649 8.26517 74.8951C8.91089 75.8492 9.19634 77.0113 9.04946 78.1619L8.04624 85.9743L6.91553 94.7693C6.4638 98.2953 9.89195 101.001 13.0901 99.6425L21.066 96.2504L28.5292 93.0776C29.5435 92.6475 30.6714 92.6219 31.7107 92.9779C37.3199 94.9032 43.403 95.7633 49.7355 95.3105C71.7094 93.7412 91.2529 73.6362 92.7466 51.0505C94.584 23.2756 73.2724 0.143049 46.6731 0.000642357ZM70.9528 61.6541C64.3626 68.427 55.6578 72.1011 46.5179 72.1011C44.9023 72.1011 43.2699 71.9871 41.6348 71.7536C34.1107 70.6799 27.2876 67.188 21.9057 61.6541C20.6059 60.3184 20.6059 58.1566 21.9057 56.8209C23.2055 55.4851 25.3089 55.4851 26.6087 56.8209C30.9597 61.2924 36.4746 64.1149 42.5494 64.9836C51.3401 66.2396 59.9783 63.2633 66.2471 56.8209C67.5469 55.4851 69.6531 55.4851 70.9501 56.8209C72.2498 58.1566 72.2498 60.3184 70.9501 61.6541H70.9528Z" fill="#575EFF"/>
</svg>
